<svg width="24" height="24" viewBox="0 0 24 24" fill="none" xmlns="http://www.w3.org/2000/svg">
<path fill-rule="evenodd" clip-rule="evenodd" d="M20.9555 7.461C20.9555 4.44497 18.5105 2 15.4945 2H7.05477V4.82979H15.147C16.7098 4.82979 17.9768 6.12155 17.9768 7.6844C17.9768 9.24725 16.7098 10.539 15.147 10.539H7.05477L7.05476 10.5532C4.22415 10.7567 1.99094 13.1176 1.99094 16V16.4965C1.99094 19.5125 4.43591 21.9575 7.45194 21.9575H15.8917L14.4519 19.078H7.79945C6.2366 19.078 4.96966 17.7863 4.96966 16.2234C4.96966 14.8402 5.96212 13.6693 7.2738 13.4185H15.4945C18.5105 13.4185 20.9555 10.9735 20.9555 7.95745V7.461ZM7.05477 10.539L8.49448 10.539L7.45194 10.539C7.31837 10.539 7.18592 10.5438 7.05476 10.5532L7.05477 10.539Z" fill="black"/>
<path d="M21.3516 21.9869C21.8999 21.9797 22.1558 21.5714 21.9231 21.0748L19.2896 15.4556C18.9406 14.7108 17.9909 14.1157 17.1684 14.1265L16.1756 14.1395C15.9014 14.1431 15.7735 14.3473 15.8898 14.5955L18.9446 21.1138C19.1773 21.6104 19.8105 22.0071 20.3588 21.9999L21.3516 21.9869Z" fill="black"/>
</svg>
