<svg width="21" height="24" viewBox="0 0 21 24" fill="none" xmlns="http://www.w3.org/2000/svg">
<path d="M3 1.49999C1.34531 1.49999 0 2.8453 0 4.49999V19.5C0 21.1547 1.34531 22.5 3 22.5H18C19.6547 22.5 21 21.1547 21 19.5V4.49999C21 2.8453 19.6547 1.49999 18 1.49999H3ZM16.9266 5.43749L12.0609 10.9969L17.7844 18.5625H13.3031L9.79688 13.9734L5.77969 18.5625H3.55313L8.75625 12.6141L3.26719 5.43749H7.86094L11.0344 9.6328L14.7 5.43749H16.9266ZM15.1547 17.2312L7.19062 6.69843H5.86406L13.9172 17.2312H15.15H15.1547Z" fill="#959595"/>
</svg>
