<svg width="21" height="24" viewBox="0 0 21 24" fill="none" xmlns="http://www.w3.org/2000/svg">
<path d="M7.27969 14.925C8.08594 14.925 8.74219 14.6391 8.74219 13.7344C8.74219 12.8109 8.19375 12.45 7.32187 12.4453H5.16562V14.925H7.27969ZM7.02656 8.85H5.17031V10.95H7.17188C7.87969 10.95 8.38125 10.6406 8.38125 9.87656C8.38125 9.04687 7.73906 8.85 7.02656 8.85ZM13.0969 12.3563H16.0125C15.9328 11.4891 15.4828 10.9641 14.5828 10.9641C13.725 10.9641 13.1531 11.4984 13.0969 12.3563ZM18 1.5H3C1.34531 1.5 0 2.84531 0 4.5V19.5C0 21.1547 1.34531 22.5 3 22.5H18C19.6547 22.5 21 21.1547 21 19.5V4.5C21 2.84531 19.6547 1.5 18 1.5ZM16.3828 8.67188H12.7359V7.78594H16.3828V8.67188ZM9.07969 11.4234C10.1859 11.7375 10.7203 12.7125 10.7203 13.8422C10.7203 15.6703 9.1875 16.4531 7.55156 16.4625H3.1875V7.4625H7.42969C8.97188 7.4625 10.3078 7.89844 10.3078 9.68906C10.3078 10.5937 9.88594 11.0391 9.07969 11.4234ZM14.6437 9.61406C16.6828 9.61406 17.8125 11.2219 17.8125 13.1484C17.8125 13.2234 17.8078 13.3031 17.8031 13.3828C17.8031 13.4203 17.7984 13.4531 17.7984 13.4859H13.1016C13.1016 14.5266 13.65 15.1406 14.7 15.1406C15.2438 15.1406 15.9422 14.85 16.1156 14.2922H17.6953C17.2078 15.7875 16.2 16.4859 14.6437 16.4859C12.5906 16.4859 11.3109 15.0938 11.3109 13.0641C11.3109 11.1047 12.6562 9.61406 14.6437 9.61406Z" fill="#959595"/>
</svg>
