<svg width="21" height="24" viewBox="0 0 21 24" fill="none" xmlns="http://www.w3.org/2000/svg">
<path d="M9.1125 9.92344C8.83949 10.106 8.60511 10.3405 8.42273 10.6136C8.24035 10.8867 8.11355 11.193 8.04957 11.5151C7.92034 12.1656 8.05483 12.8408 8.42344 13.3922C8.79205 13.9435 9.36459 14.3259 10.0151 14.4551C10.6656 14.5843 11.3408 14.4499 11.8922 14.0812C12.4435 13.7126 12.8259 13.1401 12.9551 12.4896C13.0843 11.8391 12.9499 11.1639 12.5812 10.6125C12.2126 10.0611 11.6401 9.67879 10.9896 9.54957C10.3391 9.42034 9.66386 9.55483 9.1125 9.92344ZM15.7828 6.71719C15.5391 6.47344 15.2437 6.28125 14.9203 6.15469C14.0719 5.82188 12.2203 5.83594 11.025 5.85C10.8328 5.85 10.6547 5.85469 10.5 5.85469C10.3453 5.85469 10.1625 5.85469 9.96563 5.85C8.77031 5.83594 6.92812 5.81719 6.07969 6.15469C5.75625 6.28125 5.46563 6.47344 5.21719 6.71719C4.96875 6.96094 4.78125 7.25625 4.65469 7.57969C4.32188 8.42812 4.34063 10.2844 4.35 11.4797C4.35 11.6719 4.35469 11.85 4.35469 12C4.35469 12.15 4.35469 12.3281 4.35 12.5203C4.34063 13.7156 4.32188 15.5719 4.65469 16.4203C4.78125 16.7437 4.97344 17.0344 5.21719 17.2828C5.46094 17.5313 5.75625 17.7188 6.07969 17.8453C6.92812 18.1781 8.77969 18.1641 9.975 18.15C10.1672 18.15 10.3453 18.1453 10.5 18.1453C10.6547 18.1453 10.8375 18.1453 11.0344 18.15C12.2297 18.1641 14.0719 18.1828 14.9203 17.8453C15.2437 17.7188 15.5344 17.5266 15.7828 17.2828C16.0313 17.0391 16.2188 16.7437 16.3453 16.4203C16.6828 15.5766 16.6641 13.7297 16.65 12.5297C16.65 12.3328 16.6453 12.15 16.6453 11.9953C16.6453 11.8406 16.6453 11.6625 16.65 11.4609C16.6641 10.2656 16.6828 8.41875 16.3453 7.57031C16.2188 7.24687 16.0266 6.95625 15.7828 6.70781V6.71719ZM12.6375 8.80313C13.4854 9.37003 14.0733 10.2505 14.272 11.2509C14.4706 12.2513 14.2638 13.2896 13.6969 14.1375C13.13 14.9854 12.2495 15.5733 11.2491 15.772C10.2487 15.9706 9.21036 15.7638 8.3625 15.1969C7.94268 14.9165 7.5822 14.5561 7.30164 14.1364C7.02108 13.7167 6.82593 13.2459 6.72734 12.7507C6.62875 12.2556 6.62865 11.7459 6.72704 11.2508C6.82543 10.7556 7.02039 10.2847 7.30078 9.86484C7.58117 9.44502 7.94151 9.08454 8.36122 8.80398C8.78093 8.52342 9.25178 8.32827 9.74691 8.22968C10.242 8.13109 10.7517 8.13099 11.2469 8.22938C11.7421 8.32777 12.213 8.52273 12.6328 8.80313H12.6375ZM14.0062 8.74219C13.8609 8.64375 13.7438 8.50312 13.6734 8.33906C13.6031 8.175 13.5891 7.99688 13.6219 7.81875C13.6547 7.64063 13.7437 7.48594 13.8656 7.35938C13.9875 7.23281 14.1516 7.14844 14.325 7.11563C14.4984 7.08281 14.6813 7.09687 14.8453 7.16719C15.0094 7.2375 15.15 7.35 15.2484 7.49531C15.3469 7.64062 15.3984 7.81406 15.3984 7.99219C15.3984 8.10938 15.375 8.22656 15.3328 8.33438C15.2906 8.44219 15.2203 8.54063 15.1406 8.625C15.0609 8.70937 14.9578 8.775 14.85 8.82187C14.7422 8.86875 14.625 8.89219 14.5078 8.89219C14.3297 8.89219 14.1562 8.84062 14.0109 8.74219H14.0062ZM21 4.5C21 2.84531 19.6547 1.5 18 1.5H3C1.34531 1.5 0 2.84531 0 4.5V19.5C0 21.1547 1.34531 22.5 3 22.5H18C19.6547 22.5 21 21.1547 21 19.5V4.5ZM16.7344 18.2344C15.8578 19.1109 14.7938 19.3875 13.5938 19.4484C12.3563 19.5187 8.64375 19.5187 7.40625 19.4484C6.20625 19.3875 5.14219 19.1109 4.26562 18.2344C3.38906 17.3578 3.1125 16.2938 3.05625 15.0938C2.98594 13.8563 2.98594 10.1437 3.05625 8.90625C3.11719 7.70625 3.38906 6.64219 4.26562 5.76562C5.14219 4.88906 6.21094 4.6125 7.40625 4.55625C8.64375 4.48594 12.3563 4.48594 13.5938 4.55625C14.7938 4.61719 15.8578 4.88906 16.7344 5.76562C17.6109 6.64219 17.8875 7.70625 17.9437 8.90625C18.0141 10.1391 18.0141 13.8469 17.9437 15.0891C17.8828 16.2891 17.6109 17.3531 16.7344 18.2297V18.2344Z" fill="#959595"/>
</svg>
