<svg width="116" height="64" viewBox="0 0 116 64" fill="none" xmlns="http://www.w3.org/2000/svg">
<g clip-path="url(#clip0_142_1933)">
<path d="M115.991 22.7619C116.003 22.673 116.003 22.583 115.991 22.4941C116.002 22.4216 116.002 22.3477 115.991 22.275L115.138 16.0187C115.014 15.2702 114.685 14.5706 114.187 13.9982L114.04 13.8278L113.772 13.56L98.9983 0.85264L99.4127 1.26651C99.0737 0.861429 98.6481 0.537416 98.1671 0.318341C97.6862 0.0992646 97.162 -0.00930672 96.6335 0.000635869H92.1476C91.4182 -0.0137954 90.7054 0.217782 90.1241 0.657923C89.5137 0.220434 88.7788 -0.00995966 88.0275 0.000635869H83.5415C82.9532 -0.00889542 82.3729 0.136904 81.8591 0.423314C81.3454 0.709723 80.9166 1.12657 80.6161 1.63165C80.1527 2.35304 79.9786 3.22221 80.1284 4.06602L80.6892 8.00966C80.3177 7.79939 79.8972 7.69029 79.4702 7.69323H57.7479C56.9686 7.69811 56.2071 7.92621 55.5537 8.35048C54.9218 8.74539 54.4146 9.31086 54.091 9.98149L52.4087 8.54523C51.7466 7.93354 50.8727 7.60198 49.9708 7.62019H15.8881C15.1059 7.63442 14.3412 7.85259 13.6696 8.25312C12.7508 8.79011 12.0774 9.66325 11.7923 10.6875L0.967735 46.8378C0.765482 47.4334 0.745585 48.0758 0.910595 48.6829C1.0756 49.2898 1.41805 49.8341 1.89417 50.2459C2.01824 50.3509 2.1485 50.4485 2.28425 50.5379C2.28425 50.5379 2.0648 50.3918 1.9429 50.2702L16.717 63.0019C17.342 63.5765 18.1591 63.8976 19.0086 63.9026H53.3596C54.1441 63.8822 54.9094 63.6555 55.5782 63.2453C55.9564 63.0389 56.2948 62.7669 56.5777 62.4419L56.6996 62.2715L56.8946 62.0282L57.0409 61.7603L58.65 63.148C59.266 63.6997 60.0654 64.0032 60.8929 64H95.3169C96.1006 63.9739 96.8644 63.7477 97.5355 63.3427C97.9052 63.1237 98.2417 62.8531 98.5351 62.5394L98.6569 62.369L98.8519 62.1256C98.9556 61.9715 99.0455 61.8086 99.1201 61.6386C99.1998 61.491 99.265 61.3362 99.3151 61.1762L109.189 28.1662V27.8741C109.201 27.7608 109.201 27.6466 109.189 27.5333V27.3142C109.201 27.2416 109.201 27.1677 109.189 27.095C109.2 26.9411 109.2 26.7866 109.189 26.6325H112.358C112.634 26.6578 112.911 26.6578 113.187 26.6325H113.407C113.585 26.5794 113.757 26.5058 113.919 26.4134H114.162L114.601 26.0726L114.796 25.9266L115.138 25.4883V25.3424L115.381 24.9285C115.368 24.848 115.368 24.7656 115.381 24.6851C115.368 24.6456 115.368 24.6029 115.381 24.5634C115.433 24.4206 115.474 24.2741 115.503 24.1251C115.492 24.0771 115.492 24.027 115.503 23.979C115.491 23.9066 115.491 23.8325 115.503 23.76C115.503 23.76 115.991 22.8106 115.991 22.7619Z" fill="#959595"/>
<path d="M50.9703 10.3954C51.0998 10.5123 51.1902 10.6659 51.2294 10.8357C51.2687 11.0055 51.2548 11.1831 51.1898 11.3448L40.3897 47.4707C40.2537 47.8651 39.9754 48.1949 39.6095 48.3958C39.3118 48.5947 38.9671 48.7122 38.6098 48.7366H4.2834C3.99025 48.7226 3.71252 48.6013 3.50324 48.3958C3.37874 48.2808 3.29137 48.1314 3.25228 47.9667C3.21319 47.8019 3.2242 47.6293 3.28383 47.4707L14.1084 11.3448C14.2331 10.9454 14.5026 10.6068 14.8642 10.3954C15.1668 10.2108 15.5098 10.1022 15.8637 10.0789H50.1902C50.481 10.0817 50.7599 10.1949 50.9703 10.3954ZM33.0513 40.192L39.5119 18.6235H21.4223L14.986 40.192H33.0513ZM83.7366 10.7605C83.8537 10.8964 84.0001 11.0042 84.1647 11.0759C84.3294 11.1475 84.5079 11.1812 84.6874 11.1744H89.1489C89.3188 11.176 89.4862 11.1344 89.6356 11.0535C89.7849 10.9726 89.911 10.855 90.0022 10.7119C90.0814 10.6 90.1374 10.4735 90.1666 10.3396C90.1959 10.2058 90.198 10.0675 90.1727 9.93288L89.2951 3.50616C89.2116 3.20872 89.0615 2.93406 88.8564 2.70282C88.7391 2.56691 88.5929 2.45914 88.4282 2.38749C88.2636 2.31584 88.0849 2.28218 87.9055 2.28898H83.4441C83.2742 2.28733 83.1067 2.32893 82.9574 2.40986C82.8081 2.49078 82.6818 2.60837 82.5908 2.75152C82.4201 3.09232 82.347 3.31141 82.4201 3.50616L83.3222 9.93288C83.3684 10.2458 83.5137 10.5358 83.7366 10.7605ZM97.9012 3.45747C97.8175 3.16002 97.6674 2.88536 97.4623 2.65413C97.3502 2.51872 97.2081 2.41098 97.0474 2.3392C96.8868 2.26744 96.7118 2.23358 96.5359 2.24029H92.05C91.883 2.23554 91.7177 2.27602 91.5718 2.35744C91.4258 2.43886 91.3047 2.55822 91.2212 2.70282C91.059 2.91878 90.9887 3.19006 91.0262 3.45747L91.9281 9.88418C91.9847 10.1938 92.1284 10.4809 92.3426 10.7119C92.4618 10.8451 92.6086 10.9511 92.7727 11.0225C92.9369 11.0939 93.1143 11.1291 93.2934 11.1257H97.7793C97.946 11.1279 98.1102 11.0863 98.2556 11.0052C98.4012 10.924 98.5228 10.8061 98.6082 10.6632C98.693 10.5543 98.7523 10.4277 98.7819 10.293C98.8114 10.1582 98.8103 10.0185 98.7788 9.88418L97.9012 3.45747ZM79.8114 13.1949L79.3726 10.0302H57.7479C57.4084 10.0489 57.0799 10.1582 56.797 10.3467C56.6175 10.4445 56.4612 10.58 56.3391 10.7439C56.2172 10.9078 56.1322 11.0962 56.0902 11.2961L54.286 17.3333C54.214 17.4842 54.1894 17.6534 54.2155 17.8186C54.2417 17.9837 54.3172 18.137 54.4322 18.2584C54.6378 18.4514 54.9062 18.5638 55.1881 18.5749H81.4694L75.0087 40.1434H48.8006C48.4626 40.151 48.1335 40.2522 47.8498 40.4354C47.505 40.6541 47.2532 40.9922 47.1428 41.3848L45.3143 47.4221C45.2547 47.577 45.239 47.7453 45.269 47.9085C45.2993 48.0718 45.3738 48.2235 45.4849 48.347C45.6841 48.553 45.9545 48.6749 46.2407 48.6878H80.6647C81.0207 48.6573 81.3639 48.5403 81.6642 48.347C82.0242 48.1451 82.2943 47.8147 82.4201 47.4221L92.3182 14.4121H81.1767C80.9999 14.4156 80.8244 14.3828 80.6609 14.3158C80.4974 14.2488 80.3494 14.149 80.226 14.0226C80.0244 13.8018 79.8818 13.5339 79.8114 13.2436V13.1949Z" fill="black"/>
</g>
<defs>
<clipPath id="clip0_142_1933">
<rect width="115.2" height="64" fill="white" transform="translate(0.799927)"/>
</clipPath>
</defs>
</svg>
