<svg width="74" height="64" viewBox="0 0 74 64" fill="none" xmlns="http://www.w3.org/2000/svg">
<g clip-path="url(#clip0_142_1931)">
<path fill-rule="evenodd" clip-rule="evenodd" d="M46.3329 54.8571C48.7342 54.8571 51.1121 54.3841 53.3305 53.4652C55.5491 52.5462 57.5649 51.1995 59.263 49.5014C60.961 47.8034 62.3077 45.7876 63.2267 43.569C64.1456 41.3506 64.6187 38.9727 64.6187 36.5714C64.6187 29.297 61.7288 22.3203 56.585 17.1765C51.4412 12.0326 44.4645 9.14286 37.1901 9.14286C29.9157 9.14286 22.9389 12.0326 17.7952 17.1765C12.6513 22.3203 9.76151 29.297 9.76151 36.5714C9.76151 38.9727 10.2345 41.3506 11.1534 43.569C12.0724 45.7876 13.4193 47.8034 15.1173 49.5014C16.8153 51.1995 18.8311 52.5462 21.0496 53.4652C23.2681 54.3841 25.6459 54.8571 28.0472 54.8571H46.3329ZM37.1901 16.4571C31.8554 16.4571 26.7392 18.5763 22.9671 22.3484C19.1949 26.1206 17.0758 31.2368 17.0758 36.5714C17.0758 38.0122 17.3596 39.4388 17.9109 40.77C18.4623 42.1012 19.2704 43.3106 20.2893 44.3293C21.308 45.3482 22.5174 46.1563 23.8486 46.7077C25.1798 47.2591 26.6065 47.5429 28.0472 47.5429H46.3329C47.7737 47.5429 49.2003 47.2591 50.5315 46.7077C51.8627 46.1563 53.0721 45.3482 54.0908 44.3293C55.1097 43.3106 55.9178 42.1012 56.4693 40.77C57.0206 39.4388 57.3044 38.0122 57.3044 36.5714C57.3044 31.2368 55.1852 26.1206 51.4131 22.3484C47.6409 18.5763 42.5248 16.4571 37.1901 16.4571Z" fill="#959595"/>
<path fill-rule="evenodd" clip-rule="evenodd" d="M24.3901 64C21.2683 64 18.1773 63.2905 15.2932 61.9121C12.4091 60.5338 9.78857 58.5134 7.58114 55.9664C5.3738 53.4193 3.62279 50.3958 2.42814 47.068C1.23352 43.7402 0.618652 40.1733 0.618652 36.5714C0.618652 26.8721 4.47171 17.57 11.3302 10.7115C18.1886 3.85306 27.4908 0 37.1901 0C46.8894 0 56.1915 3.85306 63.0499 10.7115C69.9085 17.57 73.7615 26.8721 73.7615 36.5714C73.7615 40.1733 73.1466 43.7402 71.952 47.068C70.7574 50.3958 69.0063 53.4193 66.799 55.9664C64.5916 58.5134 61.9711 60.5338 59.087 61.9121C56.2028 63.2905 53.1118 64 49.9901 64H24.3901ZM16.5022 15.8835C21.989 10.3967 29.4305 7.31429 37.1901 7.31429C44.9496 7.31429 52.3912 10.3967 57.878 15.8835C63.3648 21.3703 66.4472 28.8119 66.4472 36.5714C66.4472 39.347 65.9725 42.0767 65.0679 44.5967C64.1633 47.1164 62.8588 49.3447 61.2716 51.176C59.6863 53.0053 57.8612 54.3912 55.9329 55.3128C54.0095 56.2322 51.9936 56.6857 49.9901 56.6857H24.3901C22.3865 56.6857 20.3707 56.2322 18.4472 55.3128C16.519 54.3912 14.6939 53.0053 13.1085 51.176C11.5214 49.3447 10.2169 47.1164 9.31229 44.5967C8.40765 42.0767 7.93294 39.347 7.93294 36.5714C7.93294 28.8119 11.0154 21.3703 16.5022 15.8835Z" fill="#959595"/>
<path d="M46.3329 45.7143H37.182C36.5676 45.7137 35.9578 45.6512 35.3615 45.5296C34.2059 45.2937 33.1008 44.8351 32.1107 44.1734C30.607 43.1687 29.4351 41.741 28.7432 40.0702C28.5188 39.5284 28.348 38.9691 28.2319 38.4C27.9898 37.2142 27.9845 35.9861 28.223 34.7877C28.5757 33.0141 29.4464 31.3851 30.7252 30.1065C32.0037 28.8278 33.6328 27.957 35.4063 27.6043C35.4619 27.5931 35.5173 27.5827 35.5729 27.5727C36.1088 27.4765 36.6501 27.4286 37.1901 27.4286C38.3851 27.4286 39.5742 27.6628 40.6889 28.1245C42.3595 28.8165 43.7874 29.9884 44.792 31.4918C45.7968 32.9955 46.3329 34.7632 46.3329 36.5714H39.0187C39.0187 36.2097 38.9115 35.8563 38.7105 35.5555C38.5096 35.2549 38.224 35.0204 37.8899 34.882C37.5558 34.7436 37.1881 34.7074 36.8333 34.778C36.4786 34.8485 36.1527 35.0226 35.8971 35.2784C35.6413 35.5341 35.4672 35.8599 35.3966 36.2147C35.326 36.5694 35.3622 36.9371 35.5007 37.2712C35.6391 37.6053 35.8735 37.8909 36.1741 38.0919C36.4749 38.2928 36.8284 38.4 37.1901 38.4H46.3329C46.573 38.4 46.8109 38.3526 47.0327 38.2608C47.2545 38.1689 47.4561 38.0343 47.6259 37.8644C47.7958 37.6945 47.9304 37.493 48.0224 37.2712C48.1142 37.0494 48.1615 36.8115 48.1615 36.5714C48.1615 33.6616 47.0057 30.871 44.948 28.8135C42.8905 26.7558 40.0999 25.6 37.1901 25.6C36.8745 25.6 36.5603 25.6135 36.2484 25.6404C35.4817 25.7064 34.7279 25.8527 33.9992 26.0743C33.2822 26.2921 32.5894 26.583 31.9317 26.9422C31.1783 27.3536 30.471 27.8546 29.8264 28.4383C29.6922 28.5597 29.5607 28.6848 29.4322 28.8135C28.532 29.7136 27.8044 30.7542 27.2706 31.8835C27.0038 32.4482 26.7853 33.035 26.6182 33.6377C26.4269 34.3267 26.3026 35.0362 26.249 35.7566C26.2289 36.0269 26.2187 36.2986 26.2187 36.5714C26.2187 38.0052 26.4997 39.4324 27.0538 40.77C27.8843 42.7749 29.2905 44.4882 31.0947 45.6938C31.105 45.7008 31.1152 45.7075 31.1254 45.7143H28.0472C26.8466 45.7143 25.6576 45.4779 24.5484 45.0183C23.4392 44.5588 22.4313 43.8853 21.5823 43.0363C20.7333 42.1873 20.0598 41.1794 19.6003 40.0702C19.1408 38.961 18.9044 37.7721 18.9044 36.5714C18.9044 31.7217 20.8309 27.0707 24.2601 23.6414C27.6894 20.2123 32.3403 18.2857 37.1901 18.2857C42.0398 18.2857 46.6908 20.2123 50.1201 23.6414C53.5492 27.0707 55.4758 31.7217 55.4758 36.5714C55.4758 37.7721 55.2394 38.961 54.7798 40.0702C54.3203 41.1794 53.6469 42.1873 52.7979 43.0363C51.9488 43.8853 50.9409 44.5588 49.8317 45.0183C48.7225 45.4779 47.5336 45.7143 46.3329 45.7143Z" fill="#959595"/>
</g>
<defs>
<clipPath id="clip0_142_1931">
<rect width="73.1429" height="64" fill="white" transform="translate(0.618652)"/>
</clipPath>
</defs>
</svg>
