<svg width="92" height="64" viewBox="0 0 92 64" fill="none" xmlns="http://www.w3.org/2000/svg">
<g clip-path="url(#clip0_142_1929)">
<path fill-rule="evenodd" clip-rule="evenodd" d="M22.9763 9.40484L0.151672 32C4.71702 36.5195 9.93222 40.3284 15.6183 43.3083C17.1899 47.4354 19.6535 51.3058 23.0088 54.6274C35.6326 67.1241 56.0996 67.1241 68.7231 54.6274C72.0785 51.3058 74.5421 47.4354 76.1137 43.3081C81.7997 40.3284 87.015 36.5195 91.5802 32L68.7741 9.42322C68.7572 9.40633 68.7402 9.38943 68.7231 9.37256C56.0996 -3.12419 35.6326 -3.12419 23.0088 9.37256C22.998 9.38333 22.9871 9.39407 22.9763 9.40484ZM66.5391 47.3849C59.8877 49.6071 52.9053 50.7451 45.866 50.7451C38.8266 50.7451 31.8445 49.6071 25.193 47.3849C25.9137 48.3314 26.7094 49.2398 27.5802 50.1019C37.6792 60.0994 54.0527 60.0994 64.1517 50.1019C65.0225 49.2398 65.8184 48.3314 66.5391 47.3849ZM28.049 13.4455C29.764 14.5671 31.5876 15.5269 33.4957 16.3094C37.4175 17.9175 41.6209 18.7452 45.866 18.7452C50.111 18.7452 54.3144 17.9175 58.2362 16.3094C60.1444 15.5269 61.9679 14.5671 63.6831 13.4454C53.7101 4.05149 38.0218 4.05151 28.049 13.4455Z" fill="#959595"/>
</g>
<defs>
<clipPath id="clip0_142_1929">
<rect width="91.4286" height="64" fill="white" transform="translate(0.151672)"/>
</clipPath>
</defs>
</svg>
