<svg width="168" height="64" viewBox="0 0 168 64" fill="none" xmlns="http://www.w3.org/2000/svg">
<g clip-path="url(#clip0_142_1927)">
<path d="M40.2113 0C33.7129 0 27.4808 2.58144 22.8858 7.17645L7.8897 22.1726C3.2947 26.7676 0.713257 32.9997 0.713257 39.498C0.713257 53.0302 11.6832 64 25.2152 64C31.7136 64 37.9457 61.4185 42.5407 56.8235L52.9136 46.4506L83.1367 16.2274C85.3313 14.0329 88.3077 12.8 91.4113 12.8C96.6072 12.8 101.012 16.1865 102.54 20.8727L112.078 11.3343C107.727 4.51913 100.097 0 91.4113 0C84.9129 0 78.6808 2.58144 74.0858 7.17645L33.4898 47.7726C31.2952 49.9671 28.3188 51.2 25.2152 51.2C18.7524 51.2 13.5133 45.961 13.5133 39.498C13.5133 36.3945 14.7461 33.418 16.9407 31.2235L31.9367 16.2274C34.1313 14.0329 37.1077 12.8 40.2113 12.8C45.4074 12.8 49.8123 16.1866 51.3396 20.873L60.8782 11.3345C56.5268 4.51925 48.8969 0 40.2113 0Z" fill="#959595"/>
<path d="M84.6898 47.7726C82.4952 49.9671 79.5188 51.2 76.4152 51.2C71.2199 51.2 66.8152 47.8144 65.2875 43.129L55.7494 52.6671C60.101 59.4814 67.7304 64 76.4152 64C82.9136 64 89.1457 61.4185 93.7407 56.8235L134.337 16.2274C136.531 14.0329 139.508 12.8 142.611 12.8C149.074 12.8 154.313 18.0391 154.313 24.502C154.313 27.6055 153.08 30.582 150.886 32.7765L135.89 47.7726C133.695 49.9671 130.719 51.2 127.615 51.2C122.419 51.2 118.015 47.8138 116.487 43.1279L106.949 52.6662C111.3 59.4812 118.93 64 127.615 64C134.114 64 140.346 61.4185 144.941 56.8235L159.937 41.8274C164.532 37.2324 167.113 31.0003 167.113 24.502C167.113 10.9699 156.143 0 142.611 0C136.113 0 129.881 2.58144 125.286 7.17645L84.6898 47.7726Z" fill="#959595"/>
</g>
<defs>
<clipPath id="clip0_142_1927">
<rect width="166.4" height="64" fill="white" transform="translate(0.713257)"/>
</clipPath>
</defs>
</svg>
