<svg width="160" height="64" viewBox="0 0 160 64" fill="none" xmlns="http://www.w3.org/2000/svg">
<g clip-path="url(#clip0_142_1923)">
<path d="M7.63213 6.776C8.04813 4.8016 10.0161 3.2 12.0209 3.2H22.9201L13.8561 46.1168H2.95693C0.950528 46.1168 -0.339072 44.5168 0.078528 42.5408L7.63213 6.776ZM43.9633 6.776C44.3809 4.8016 46.3473 3.2 48.3521 3.2H59.2513L50.1873 46.1168H39.2881C37.2817 46.1168 35.9921 44.5168 36.4097 42.5408L43.9633 6.776ZM116.627 6.776C117.043 4.8016 119.008 3.2 121.016 3.2H131.915L122.851 46.1168H111.951C109.944 46.1168 108.656 44.5168 109.074 42.5408L116.627 6.776ZM62.8849 3.2H73.7841C75.7905 3.2 77.0801 4.8 76.6625 6.776L69.1089 42.5408C68.6929 44.5168 66.7265 46.1168 64.7201 46.1168H53.8209L62.8849 3.2ZM135.549 3.2H146.448C148.455 3.2 149.744 4.8 149.327 6.776L141.771 42.5408C141.355 44.5168 139.391 46.1168 137.384 46.1168H126.483L135.549 3.2ZM80.2961 6.776C80.7121 4.8016 82.6769 3.2 84.6833 3.2H95.5841L86.5185 46.1168H75.6193C73.6129 46.1168 72.3233 44.5168 72.7425 42.5408L80.2945 6.776H80.2961ZM99.2161 3.2H110.117C112.123 3.2 113.411 4.8 112.994 6.776L101.664 60.424C101.245 62.3984 99.2801 64 97.2737 64H86.3729L99.2161 3.2ZM20.5105 31.8112H35.0433L32.7777 42.5408C32.3601 44.5168 30.3937 46.1168 28.3889 46.1168H17.4881L20.5089 31.8128L20.5105 31.8112ZM71.2321 49.6944H85.7633L82.7425 64H71.8433C69.8353 64 68.5473 62.4 68.9649 60.424L71.2321 49.6944ZM110.679 53.0208L108.839 61.7344C108.759 62.1088 108.634 62.2112 108.253 62.2112H107.416C107.035 62.2112 106.952 62.1088 107.032 61.7344L108.872 53.0208C108.952 52.648 109.077 52.544 109.458 52.544H110.295C110.675 52.544 110.759 52.648 110.679 53.0208ZM113.098 58.8992H112.927C112.744 58.8992 112.68 58.9504 112.643 59.1312L112.093 61.7344C112.013 62.1088 111.887 62.2112 111.507 62.2112H110.669C110.29 62.2112 110.207 62.1088 110.285 61.7344L112.125 53.0208C112.205 52.648 112.333 52.544 112.712 52.544H114.44C116.431 52.544 117.184 53.2528 116.816 54.992L116.509 56.4496C116.141 58.1904 115.088 58.8992 113.098 58.8992ZM113.603 54.5808L113.123 56.8624C113.083 57.0432 113.125 57.0944 113.309 57.0944H113.584C114.224 57.0944 114.568 56.8368 114.707 56.1792L114.899 55.264C115.039 54.608 114.805 54.3488 114.163 54.3488H113.888C113.706 54.3488 113.642 54.4 113.603 54.5808ZM119.584 55.9856L120.944 57.4816C121.658 58.2544 121.757 58.7184 121.575 59.5824L121.527 59.8144C121.183 61.4384 120.363 62.3408 118.464 62.3408C116.567 62.3408 116.098 61.5808 116.536 59.504L116.591 59.248C116.671 58.8736 116.797 58.7696 117.176 58.7696H118.066C118.447 58.7696 118.53 58.8736 118.45 59.2464L118.33 59.8144C118.221 60.3296 118.387 60.536 118.845 60.536C119.304 60.536 119.554 60.344 119.653 59.88L119.704 59.6336C119.781 59.272 119.739 59.0928 119.346 58.6672L118.066 57.288C117.349 56.528 117.258 56.088 117.44 55.224L117.499 54.9424C117.843 53.3184 118.663 52.4144 120.56 52.4144C122.459 52.4144 122.928 53.176 122.49 55.2512L122.435 55.5088C122.355 55.8832 122.229 55.9856 121.85 55.9856H120.959C120.579 55.9856 120.496 55.8832 120.575 55.5088L120.695 54.9424C120.803 54.4256 120.639 54.2208 120.179 54.2208C119.722 54.2208 119.471 54.4128 119.373 54.8768L119.327 55.096C119.247 55.4704 119.288 55.6512 119.584 55.9856ZM127.251 53.0208C127.331 52.648 127.456 52.544 127.837 52.544H128.674C129.055 52.544 129.138 52.648 129.058 53.0208L127.688 59.5056C127.25 61.5808 126.461 62.3408 124.562 62.3408C122.664 62.3408 122.195 61.5808 122.634 59.504L124.003 53.0208C124.083 52.648 124.21 52.544 124.589 52.544H125.427C125.807 52.544 125.89 52.648 125.811 53.0208L124.376 59.8144C124.267 60.3296 124.447 60.536 124.944 60.536C125.427 60.536 125.707 60.3296 125.816 59.8144L127.251 53.0208ZM132.701 58.2672C132.706 58.3712 132.739 58.3952 132.805 58.3952C132.869 58.3952 132.915 58.3712 132.963 58.2672L135.226 52.88C135.336 52.608 135.467 52.544 135.795 52.544H137.066C137.445 52.544 137.528 52.648 137.45 53.0208L135.61 61.7344C135.53 62.1088 135.402 62.2112 135.023 62.2112H134.421C134.042 62.2112 133.957 62.1088 134.037 61.7344L134.92 57.5584C134.944 57.4432 134.923 57.416 134.845 57.416C134.792 57.416 134.733 57.4432 134.701 57.5328L132.874 61.7872C132.743 62.096 132.575 62.2112 132.195 62.2112H131.84C131.447 62.2112 131.328 62.096 131.328 61.7872L131.283 57.5312C131.275 57.4416 131.255 57.416 131.189 57.416C131.111 57.416 131.079 57.4432 131.055 57.5584L130.173 61.7344C130.093 62.1088 129.968 62.2112 129.587 62.2112H128.986C128.605 62.2112 128.522 62.1088 128.602 61.7344L130.442 53.0208C130.522 52.648 130.648 52.544 131.027 52.544H132.115C132.573 52.544 132.72 52.648 132.717 53.0992L132.699 58.2672H132.701ZM160 3.2C160 4.968 158.576 6.4 156.821 6.4C156.402 6.39874 155.987 6.31496 155.601 6.15344C155.214 5.99193 154.864 5.75584 154.568 5.45867C154.273 5.1615 154.039 4.80908 153.88 4.42153C153.721 4.03397 153.64 3.61889 153.642 3.2C153.642 1.432 155.066 0 156.821 0C158.576 0 160 1.432 160 3.2Z" fill="#959595"/>
</g>
<defs>
<clipPath id="clip0_142_1923">
<rect width="160" height="64" fill="white"/>
</clipPath>
</defs>
</svg>
