<svg width="25" height="24" viewBox="0 0 25 24" fill="none" xmlns="http://www.w3.org/2000/svg">
<path d="M21.6 12.79C21.4427 14.4922 20.8039 16.1144 19.7582 17.4668C18.7126 18.8192 17.3035 19.8458 15.6957 20.4265C14.0879 21.0073 12.348 21.1181 10.6795 20.7461C9.01102 20.3741 7.48299 19.5345 6.27422 18.3258C5.06546 17.117 4.22594 15.589 3.85391 13.9205C3.48187 12.252 3.59272 10.5121 4.17346 8.9043C4.7542 7.29651 5.78083 5.88737 7.13321 4.84175C8.48559 3.79614 10.1078 3.15731 11.81 3C10.8134 4.34827 10.3338 6.00945 10.4585 7.68141C10.5832 9.35338 11.3039 10.9251 12.4894 12.1106C13.6749 13.2961 15.2466 14.0168 16.9186 14.1415C18.5906 14.2662 20.2517 13.7866 21.6 12.79Z" stroke="black" stroke-width="2" stroke-linecap="round" stroke-linejoin="round"/>
</svg>
