<svg width="94" height="24" viewBox="0 0 94 24" fill="none" xmlns="http://www.w3.org/2000/svg">
<path d="M0.965909 18V9.27273H3.3125V10.7955H3.40341C3.5625 10.2538 3.82955 9.8447 4.20455 9.56818C4.57955 9.28788 5.01136 9.14773 5.5 9.14773C5.62121 9.14773 5.75189 9.1553 5.89205 9.17045C6.0322 9.18561 6.1553 9.20644 6.26136 9.23295V11.3807C6.14773 11.3466 5.99053 11.3163 5.78977 11.2898C5.58902 11.2633 5.4053 11.25 5.23864 11.25C4.88258 11.25 4.56439 11.3277 4.28409 11.483C4.00758 11.6345 3.78788 11.8466 3.625 12.1193C3.46591 12.392 3.38636 12.7064 3.38636 13.0625V18H0.965909ZM11.0838 18.1705C10.1861 18.1705 9.41335 17.9886 8.76562 17.625C8.12169 17.2576 7.62547 16.7386 7.27699 16.0682C6.9285 15.3939 6.75426 14.5966 6.75426 13.6761C6.75426 12.7784 6.9285 11.9905 7.27699 11.3125C7.62547 10.6345 8.116 10.1061 8.74858 9.72727C9.38494 9.34848 10.1312 9.15909 10.9872 9.15909C11.563 9.15909 12.099 9.25189 12.5952 9.4375C13.0952 9.61932 13.5308 9.89394 13.902 10.2614C14.277 10.6288 14.5687 11.0909 14.777 11.6477C14.9853 12.2008 15.0895 12.8485 15.0895 13.5909V14.2557H7.72017V12.7557H12.8111C12.8111 12.4072 12.7353 12.0985 12.5838 11.8295C12.4323 11.5606 12.2221 11.3504 11.9531 11.1989C11.688 11.0436 11.3793 10.9659 11.027 10.9659C10.6596 10.9659 10.3338 11.0511 10.0497 11.2216C9.76941 11.3883 9.54972 11.6136 9.39062 11.8977C9.23153 12.178 9.15009 12.4905 9.14631 12.8352V14.2614C9.14631 14.6932 9.22585 15.0663 9.38494 15.3807C9.54782 15.6951 9.77699 15.9375 10.0724 16.108C10.3679 16.2784 10.7183 16.3636 11.1236 16.3636C11.3925 16.3636 11.6387 16.3258 11.8622 16.25C12.0857 16.1742 12.277 16.0606 12.4361 15.9091C12.5952 15.7576 12.7164 15.572 12.7997 15.3523L15.0384 15.5C14.9247 16.0379 14.6918 16.5076 14.3395 16.9091C13.991 17.3068 13.5402 17.6174 12.9872 17.8409C12.438 18.0606 11.8035 18.1705 11.0838 18.1705ZM19.1577 18.1648C18.6009 18.1648 18.1046 18.0682 17.669 17.875C17.2334 17.678 16.8887 17.3883 16.6349 17.0057C16.3849 16.6193 16.2599 16.1383 16.2599 15.5625C16.2599 15.0777 16.349 14.6705 16.527 14.3409C16.705 14.0114 16.9474 13.7462 17.2543 13.5455C17.5611 13.3447 17.9096 13.1932 18.2997 13.0909C18.6937 12.9886 19.1065 12.9167 19.5384 12.875C20.0459 12.822 20.455 12.7727 20.7656 12.7273C21.0762 12.678 21.3016 12.6061 21.4418 12.5114C21.5819 12.4167 21.652 12.2765 21.652 12.0909V12.0568C21.652 11.697 21.5384 11.4186 21.3111 11.2216C21.0876 11.0246 20.7694 10.9261 20.3565 10.9261C19.9209 10.9261 19.5743 11.0227 19.3168 11.2159C19.0592 11.4053 18.8887 11.6439 18.8054 11.9318L16.5668 11.75C16.6804 11.2197 16.9039 10.7614 17.2372 10.375C17.5705 9.98485 18.0005 9.68561 18.527 9.47727C19.0573 9.26515 19.6709 9.15909 20.3679 9.15909C20.8527 9.15909 21.3168 9.21591 21.7599 9.32955C22.2069 9.44318 22.6027 9.61932 22.9474 9.85795C23.2959 10.0966 23.5705 10.4034 23.7713 10.7784C23.9721 11.1496 24.0724 11.5947 24.0724 12.1136V18H21.777V16.7898H21.7088C21.5687 17.0625 21.3812 17.303 21.1463 17.5114C20.9115 17.7159 20.6293 17.8769 20.2997 17.9943C19.9702 18.108 19.5895 18.1648 19.1577 18.1648ZM19.8509 16.4943C20.2069 16.4943 20.5213 16.4242 20.794 16.2841C21.0668 16.1402 21.2808 15.947 21.4361 15.7045C21.5914 15.4621 21.669 15.1875 21.669 14.8807V13.9545C21.5933 14.0038 21.4891 14.0492 21.3565 14.0909C21.2277 14.1288 21.0819 14.1648 20.919 14.1989C20.7562 14.2292 20.5933 14.2576 20.4304 14.2841C20.2675 14.3068 20.1198 14.3277 19.9872 14.3466C19.7031 14.3883 19.455 14.4545 19.2429 14.5455C19.0308 14.6364 18.866 14.7595 18.7486 14.9148C18.6312 15.0663 18.5724 15.2557 18.5724 15.483C18.5724 15.8125 18.6918 16.0644 18.9304 16.2386C19.1728 16.4091 19.4796 16.4943 19.8509 16.4943ZM28.3707 6.36364V18H25.9503V6.36364H28.3707ZM37.571 11.7614L35.3551 11.8977C35.3172 11.7083 35.2358 11.5379 35.1108 11.3864C34.9858 11.2311 34.821 11.108 34.6165 11.017C34.4157 10.9223 34.1752 10.875 33.8949 10.875C33.5199 10.875 33.2036 10.9545 32.946 11.1136C32.6884 11.2689 32.5597 11.4773 32.5597 11.7386C32.5597 11.947 32.643 12.1231 32.8097 12.267C32.9763 12.411 33.2623 12.5265 33.6676 12.6136L35.2472 12.9318C36.0956 13.1061 36.7282 13.3864 37.1449 13.7727C37.5616 14.1591 37.7699 14.6667 37.7699 15.2955C37.7699 15.8674 37.6013 16.3693 37.2642 16.8011C36.9309 17.233 36.4725 17.5701 35.8892 17.8125C35.3097 18.0511 34.6411 18.1705 33.8835 18.1705C32.7282 18.1705 31.8078 17.9299 31.1222 17.4489C30.4403 16.964 30.0407 16.3049 29.9233 15.4716L32.304 15.3466C32.3759 15.6989 32.5502 15.9678 32.8267 16.1534C33.1032 16.3352 33.4574 16.4261 33.8892 16.4261C34.3134 16.4261 34.6544 16.3447 34.9119 16.1818C35.1733 16.0152 35.3059 15.8011 35.3097 15.5398C35.3059 15.3201 35.2131 15.1402 35.0312 15C34.8494 14.8561 34.5691 14.7462 34.1903 14.6705L32.679 14.3693C31.8267 14.1989 31.1922 13.9034 30.7756 13.483C30.3627 13.0625 30.1562 12.5265 30.1562 11.875C30.1562 11.3144 30.3078 10.8314 30.6108 10.4261C30.9176 10.0208 31.3475 9.70833 31.9006 9.48864C32.4574 9.26894 33.1089 9.15909 33.8551 9.15909C34.9574 9.15909 35.8248 9.39205 36.4574 9.85795C37.0938 10.3239 37.465 10.9583 37.571 11.7614ZM41.7827 18.1648C41.2259 18.1648 40.7296 18.0682 40.294 17.875C39.8584 17.678 39.5137 17.3883 39.2599 17.0057C39.0099 16.6193 38.8849 16.1383 38.8849 15.5625C38.8849 15.0777 38.974 14.6705 39.152 14.3409C39.33 14.0114 39.5724 13.7462 39.8793 13.5455C40.1861 13.3447 40.5346 13.1932 40.9247 13.0909C41.3187 12.9886 41.7315 12.9167 42.1634 12.875C42.6709 12.822 43.08 12.7727 43.3906 12.7273C43.7012 12.678 43.9266 12.6061 44.0668 12.5114C44.2069 12.4167 44.277 12.2765 44.277 12.0909V12.0568C44.277 11.697 44.1634 11.4186 43.9361 11.2216C43.7126 11.0246 43.3944 10.9261 42.9815 10.9261C42.5459 10.9261 42.1993 11.0227 41.9418 11.2159C41.6842 11.4053 41.5137 11.6439 41.4304 11.9318L39.1918 11.75C39.3054 11.2197 39.5289 10.7614 39.8622 10.375C40.1955 9.98485 40.6255 9.68561 41.152 9.47727C41.6823 9.26515 42.2959 9.15909 42.9929 9.15909C43.4777 9.15909 43.9418 9.21591 44.3849 9.32955C44.8319 9.44318 45.2277 9.61932 45.5724 9.85795C45.9209 10.0966 46.1955 10.4034 46.3963 10.7784C46.5971 11.1496 46.6974 11.5947 46.6974 12.1136V18H44.402V16.7898H44.3338C44.1937 17.0625 44.0062 17.303 43.7713 17.5114C43.5365 17.7159 43.2543 17.8769 42.9247 17.9943C42.5952 18.108 42.2145 18.1648 41.7827 18.1648ZM42.4759 16.4943C42.8319 16.4943 43.1463 16.4242 43.419 16.2841C43.6918 16.1402 43.9058 15.947 44.0611 15.7045C44.2164 15.4621 44.294 15.1875 44.294 14.8807V13.9545C44.2183 14.0038 44.1141 14.0492 43.9815 14.0909C43.8527 14.1288 43.7069 14.1648 43.544 14.1989C43.3812 14.2292 43.2183 14.2576 43.0554 14.2841C42.8925 14.3068 42.7448 14.3277 42.6122 14.3466C42.3281 14.3883 42.08 14.4545 41.8679 14.5455C41.6558 14.6364 41.491 14.7595 41.3736 14.9148C41.2562 15.0663 41.1974 15.2557 41.1974 15.483C41.1974 15.8125 41.3168 16.0644 41.5554 16.2386C41.7978 16.4091 42.1046 16.4943 42.4759 16.4943ZM48.5753 18V9.27273H50.8821V10.8125H50.9844C51.1662 10.3011 51.4692 9.89773 51.8935 9.60227C52.3177 9.30682 52.8253 9.15909 53.4162 9.15909C54.0147 9.15909 54.5241 9.30871 54.9446 9.60795C55.3651 9.90341 55.6454 10.3049 55.7855 10.8125H55.8764C56.0545 10.3125 56.3764 9.91288 56.8423 9.61364C57.312 9.31061 57.867 9.15909 58.5071 9.15909C59.3215 9.15909 59.9825 9.41856 60.4901 9.9375C61.0014 10.4527 61.2571 11.1837 61.2571 12.1307V18H58.8423V12.608C58.8423 12.1231 58.7135 11.7595 58.456 11.517C58.1984 11.2746 57.8764 11.1534 57.4901 11.1534C57.0507 11.1534 56.7079 11.2936 56.4616 11.5739C56.2154 11.8504 56.0923 12.2159 56.0923 12.6705V18H53.7457V12.5568C53.7457 12.1288 53.6226 11.7879 53.3764 11.5341C53.134 11.2803 52.8139 11.1534 52.4162 11.1534C52.1473 11.1534 51.9048 11.2216 51.6889 11.358C51.4768 11.4905 51.3082 11.678 51.1832 11.9205C51.0582 12.1591 50.9957 12.4394 50.9957 12.7614V18H48.5753ZM64.5838 18.1477C64.2088 18.1477 63.8868 18.0152 63.6179 17.75C63.3527 17.4811 63.2202 17.1591 63.2202 16.7841C63.2202 16.4129 63.3527 16.0947 63.6179 15.8295C63.8868 15.5644 64.2088 15.4318 64.5838 15.4318C64.9474 15.4318 65.2656 15.5644 65.5384 15.8295C65.8111 16.0947 65.9474 16.4129 65.9474 16.7841C65.9474 17.0341 65.883 17.2633 65.7543 17.4716C65.6293 17.6761 65.4645 17.8409 65.2599 17.9659C65.0554 18.0871 64.83 18.1477 64.5838 18.1477ZM67.9347 21.2727V9.27273H70.321V10.7386H70.429C70.535 10.5038 70.6884 10.2652 70.8892 10.0227C71.0938 9.77652 71.3589 9.57197 71.6847 9.40909C72.0142 9.24242 72.4233 9.15909 72.9119 9.15909C73.5483 9.15909 74.1354 9.32576 74.6733 9.65909C75.2112 9.98864 75.6411 10.4867 75.9631 11.1534C76.285 11.8163 76.446 12.6477 76.446 13.6477C76.446 14.6212 76.2888 15.4432 75.9744 16.1136C75.6638 16.7803 75.2396 17.286 74.7017 17.6307C74.1676 17.9716 73.5691 18.142 72.9062 18.142C72.4366 18.142 72.0369 18.0644 71.7074 17.9091C71.3816 17.7538 71.1146 17.5587 70.9062 17.3239C70.6979 17.0852 70.5388 16.8447 70.429 16.6023H70.3551V21.2727H67.9347ZM70.304 13.6364C70.304 14.1553 70.3759 14.608 70.5199 14.9943C70.6638 15.3807 70.8722 15.6818 71.1449 15.8977C71.4176 16.1098 71.7491 16.2159 72.1392 16.2159C72.5331 16.2159 72.8665 16.108 73.1392 15.892C73.4119 15.6723 73.6184 15.3693 73.7585 14.983C73.9025 14.5928 73.9744 14.1439 73.9744 13.6364C73.9744 13.1326 73.9044 12.6894 73.7642 12.3068C73.6241 11.9242 73.4176 11.625 73.1449 11.4091C72.8722 11.1932 72.5369 11.0852 72.1392 11.0852C71.7453 11.0852 71.4119 11.1894 71.1392 11.3977C70.8703 11.6061 70.6638 11.9015 70.5199 12.2841C70.3759 12.6667 70.304 13.1174 70.304 13.6364ZM78.0597 18V9.27273H80.4062V10.7955H80.4972C80.6563 10.2538 80.9233 9.8447 81.2983 9.56818C81.6733 9.28788 82.1051 9.14773 82.5938 9.14773C82.715 9.14773 82.8456 9.1553 82.9858 9.17045C83.1259 9.18561 83.2491 9.20644 83.3551 9.23295V11.3807C83.2415 11.3466 83.0843 11.3163 82.8835 11.2898C82.6828 11.2633 82.4991 11.25 82.3324 11.25C81.9763 11.25 81.6581 11.3277 81.3778 11.483C81.1013 11.6345 80.8816 11.8466 80.7188 12.1193C80.5597 12.392 80.4801 12.7064 80.4801 13.0625V18H78.0597ZM88.1435 18.1705C87.2609 18.1705 86.4976 17.983 85.8537 17.608C85.2135 17.2292 84.7192 16.7027 84.3707 16.0284C84.0223 15.3504 83.848 14.5644 83.848 13.6705C83.848 12.7689 84.0223 11.9811 84.3707 11.3068C84.7192 10.6288 85.2135 10.1023 85.8537 9.72727C86.4976 9.34848 87.2609 9.15909 88.1435 9.15909C89.026 9.15909 89.7874 9.34848 90.4276 9.72727C91.0715 10.1023 91.5677 10.6288 91.9162 11.3068C92.2647 11.9811 92.4389 12.7689 92.4389 13.6705C92.4389 14.5644 92.2647 15.3504 91.9162 16.0284C91.5677 16.7027 91.0715 17.2292 90.4276 17.608C89.7874 17.983 89.026 18.1705 88.1435 18.1705ZM88.1548 16.2955C88.5563 16.2955 88.8916 16.1818 89.1605 15.9545C89.4295 15.7235 89.6321 15.4091 89.7685 15.0114C89.9086 14.6136 89.9787 14.161 89.9787 13.6534C89.9787 13.1458 89.9086 12.6932 89.7685 12.2955C89.6321 11.8977 89.4295 11.5833 89.1605 11.3523C88.8916 11.1212 88.5563 11.0057 88.1548 11.0057C87.7495 11.0057 87.4086 11.1212 87.1321 11.3523C86.8594 11.5833 86.6529 11.8977 86.5128 12.2955C86.3764 12.6932 86.3082 13.1458 86.3082 13.6534C86.3082 14.161 86.3764 14.6136 86.5128 15.0114C86.6529 15.4091 86.8594 15.7235 87.1321 15.9545C87.4086 16.1818 87.7495 16.2955 88.1548 16.2955Z" fill="black"/>
</svg>
